<mxfile host="app.diagrams.net" modified="2024-06-26T19:56:51.250Z" agent="Mozilla/5.0 (Windows NT 10.0; Win64; x64) AppleWebKit/537.36 (KHTML, like Gecko) Chrome/123.0.0.0 Safari/537.36 OPR/109.0.0.0" etag="I7RwkRQjJMvtlIO55Zdy" version="24.6.3" type="device">
  <diagram name="PÃ¡gina-1" id="HHp2s9zQkcCVTxij8uJi">
    <mxGraphModel dx="266" dy="229" grid="1" gridSize="10" guides="1" tooltips="1" connect="1" arrows="1" fold="1" page="1" pageScale="1" pageWidth="827" pageHeight="1169" math="0" shadow="0">
      <root>
        <mxCell id="0" />
        <mxCell id="1" parent="0" />
        <mxCell id="OYMPD8dD2Fmljcz9GphN-1" value="" style="edgeStyle=orthogonalEdgeStyle;rounded=0;orthogonalLoop=1;jettySize=auto;html=1;exitX=0;exitY=1;exitDx=0;exitDy=0;entryX=0;entryY=0.5;entryDx=0;entryDy=0;" parent="1" source="2eg3lN_9locWBpzO0fbi-1" target="jxo5zmWq1EzXRXhS_slA-422" edge="1">
          <mxGeometry relative="1" as="geometry">
            <mxPoint x="100" y="360" as="targetPoint" />
            <Array as="points">
              <mxPoint x="40" y="385" />
            </Array>
          </mxGeometry>
        </mxCell>
        <mxCell id="2eg3lN_9locWBpzO0fbi-1" value="Highlights" style="rounded=0;whiteSpace=wrap;html=1;" parent="1" vertex="1">
          <mxGeometry x="30" y="270" width="120" height="60" as="geometry" />
        </mxCell>
        <mxCell id="2eg3lN_9locWBpzO0fbi-2" value="Gallery" style="rounded=0;whiteSpace=wrap;html=1;" parent="1" vertex="1">
          <mxGeometry x="180" y="270" width="120" height="60" as="geometry" />
        </mxCell>
        <mxCell id="2eg3lN_9locWBpzO0fbi-3" value="About" style="rounded=0;whiteSpace=wrap;html=1;" parent="1" vertex="1">
          <mxGeometry x="350" y="170" width="90" height="40" as="geometry" />
        </mxCell>
        <mxCell id="OYMPD8dD2Fmljcz9GphN-3" value="" style="edgeStyle=orthogonalEdgeStyle;rounded=0;orthogonalLoop=1;jettySize=auto;html=1;exitX=0.082;exitY=1.029;exitDx=0;exitDy=0;exitPerimeter=0;entryX=0;entryY=0.5;entryDx=0;entryDy=0;" parent="1" source="2eg3lN_9locWBpzO0fbi-4" target="jxo5zmWq1EzXRXhS_slA-441" edge="1">
          <mxGeometry relative="1" as="geometry">
            <mxPoint x="519.9999999999998" y="360" as="targetPoint" />
          </mxGeometry>
        </mxCell>
        <mxCell id="2eg3lN_9locWBpzO0fbi-4" value="Contact" style="rounded=0;whiteSpace=wrap;html=1;" parent="1" vertex="1">
          <mxGeometry x="460" y="270" width="120" height="60" as="geometry" />
        </mxCell>
        <mxCell id="2eg3lN_9locWBpzO0fbi-11" value="" style="edgeStyle=orthogonalEdgeStyle;rounded=0;orthogonalLoop=1;jettySize=auto;html=1;" parent="1" source="2eg3lN_9locWBpzO0fbi-6" target="2eg3lN_9locWBpzO0fbi-7" edge="1">
          <mxGeometry relative="1" as="geometry" />
        </mxCell>
        <mxCell id="2eg3lN_9locWBpzO0fbi-6" value="Collectors" style="rounded=0;whiteSpace=wrap;html=1;" parent="1" vertex="1">
          <mxGeometry x="320" y="10" width="120" height="60" as="geometry" />
        </mxCell>
        <mxCell id="2eg3lN_9locWBpzO0fbi-16" value="" style="edgeStyle=orthogonalEdgeStyle;rounded=0;orthogonalLoop=1;jettySize=auto;html=1;exitX=0.083;exitY=1;exitDx=0;exitDy=0;exitPerimeter=0;" parent="1" source="2eg3lN_9locWBpzO0fbi-7" edge="1">
          <mxGeometry relative="1" as="geometry">
            <mxPoint x="330" y="240" as="targetPoint" />
            <Array as="points">
              <mxPoint x="330" y="162" />
            </Array>
          </mxGeometry>
        </mxCell>
        <mxCell id="2eg3lN_9locWBpzO0fbi-7" value="Home" style="rounded=0;whiteSpace=wrap;html=1;" parent="1" vertex="1">
          <mxGeometry x="320" y="100" width="120" height="60" as="geometry" />
        </mxCell>
        <mxCell id="2eg3lN_9locWBpzO0fbi-12" value="" style="endArrow=none;html=1;rounded=0;" parent="1" edge="1">
          <mxGeometry width="50" height="50" relative="1" as="geometry">
            <mxPoint x="90" y="240" as="sourcePoint" />
            <mxPoint x="520" y="240" as="targetPoint" />
          </mxGeometry>
        </mxCell>
        <mxCell id="2eg3lN_9locWBpzO0fbi-17" value="" style="endArrow=classic;html=1;rounded=0;entryX=0.5;entryY=0;entryDx=0;entryDy=0;" parent="1" target="2eg3lN_9locWBpzO0fbi-1" edge="1">
          <mxGeometry width="50" height="50" relative="1" as="geometry">
            <mxPoint x="90" y="240" as="sourcePoint" />
            <mxPoint x="440" y="270" as="targetPoint" />
          </mxGeometry>
        </mxCell>
        <mxCell id="2eg3lN_9locWBpzO0fbi-18" value="" style="endArrow=classic;html=1;rounded=0;entryX=0.5;entryY=0;entryDx=0;entryDy=0;" parent="1" target="2eg3lN_9locWBpzO0fbi-2" edge="1">
          <mxGeometry width="50" height="50" relative="1" as="geometry">
            <mxPoint x="240" y="240" as="sourcePoint" />
            <mxPoint x="110" y="280" as="targetPoint" />
          </mxGeometry>
        </mxCell>
        <mxCell id="2eg3lN_9locWBpzO0fbi-19" value="" style="endArrow=classic;html=1;rounded=0;entryX=0.5;entryY=0;entryDx=0;entryDy=0;" parent="1" target="2eg3lN_9locWBpzO0fbi-4" edge="1">
          <mxGeometry width="50" height="50" relative="1" as="geometry">
            <mxPoint x="520" y="240" as="sourcePoint" />
            <mxPoint x="120" y="290" as="targetPoint" />
          </mxGeometry>
        </mxCell>
        <mxCell id="jxo5zmWq1EzXRXhS_slA-422" value="Obras em destaque" style="rounded=0;whiteSpace=wrap;html=1;" vertex="1" parent="1">
          <mxGeometry x="50" y="360" width="100" height="50" as="geometry" />
        </mxCell>
        <mxCell id="jxo5zmWq1EzXRXhS_slA-427" value="" style="endArrow=none;html=1;rounded=0;entryX=0.097;entryY=1.015;entryDx=0;entryDy=0;entryPerimeter=0;" edge="1" parent="1" target="jxo5zmWq1EzXRXhS_slA-422">
          <mxGeometry width="50" height="50" relative="1" as="geometry">
            <mxPoint x="60" y="500" as="sourcePoint" />
            <mxPoint x="50" y="411" as="targetPoint" />
          </mxGeometry>
        </mxCell>
        <mxCell id="jxo5zmWq1EzXRXhS_slA-429" value="" style="endArrow=classic;html=1;rounded=0;entryX=0;entryY=0.5;entryDx=0;entryDy=0;" edge="1" parent="1" target="jxo5zmWq1EzXRXhS_slA-467">
          <mxGeometry width="50" height="50" relative="1" as="geometry">
            <mxPoint x="60" y="500" as="sourcePoint" />
            <mxPoint x="70" y="480" as="targetPoint" />
          </mxGeometry>
        </mxCell>
        <mxCell id="jxo5zmWq1EzXRXhS_slA-438" value="" style="edgeStyle=orthogonalEdgeStyle;rounded=0;orthogonalLoop=1;jettySize=auto;html=1;" edge="1" parent="1" target="jxo5zmWq1EzXRXhS_slA-431">
          <mxGeometry relative="1" as="geometry">
            <mxPoint x="190" y="375" as="sourcePoint" />
            <mxPoint x="190" y="370" as="targetPoint" />
            <Array as="points">
              <mxPoint x="200" y="375" />
              <mxPoint x="200" y="375" />
            </Array>
          </mxGeometry>
        </mxCell>
        <mxCell id="jxo5zmWq1EzXRXhS_slA-431" value="Pinturas" style="rounded=0;whiteSpace=wrap;html=1;" vertex="1" parent="1">
          <mxGeometry x="210" y="350" width="90" height="50" as="geometry" />
        </mxCell>
        <mxCell id="jxo5zmWq1EzXRXhS_slA-433" value="" style="endArrow=none;html=1;rounded=0;entryX=0.081;entryY=1.005;entryDx=0;entryDy=0;entryPerimeter=0;" edge="1" parent="1" target="2eg3lN_9locWBpzO0fbi-2">
          <mxGeometry width="50" height="50" relative="1" as="geometry">
            <mxPoint x="190" y="1050" as="sourcePoint" />
            <mxPoint x="60" y="421" as="targetPoint" />
          </mxGeometry>
        </mxCell>
        <mxCell id="jxo5zmWq1EzXRXhS_slA-435" value="Esculturas" style="rounded=0;whiteSpace=wrap;html=1;" vertex="1" parent="1">
          <mxGeometry x="210" y="860" width="90" height="50" as="geometry" />
        </mxCell>
        <mxCell id="jxo5zmWq1EzXRXhS_slA-436" value="Literatura" style="rounded=0;whiteSpace=wrap;html=1;" vertex="1" parent="1">
          <mxGeometry x="210" y="1020" width="90" height="50" as="geometry" />
        </mxCell>
        <mxCell id="jxo5zmWq1EzXRXhS_slA-440" value="" style="edgeStyle=orthogonalEdgeStyle;rounded=0;orthogonalLoop=1;jettySize=auto;html=1;entryX=0;entryY=0.5;entryDx=0;entryDy=0;" edge="1" parent="1" target="2eg3lN_9locWBpzO0fbi-3">
          <mxGeometry relative="1" as="geometry">
            <mxPoint x="330" y="190" as="sourcePoint" />
            <mxPoint x="220" y="385" as="targetPoint" />
            <Array as="points">
              <mxPoint x="350" y="190" />
              <mxPoint x="350" y="190" />
            </Array>
          </mxGeometry>
        </mxCell>
        <mxCell id="jxo5zmWq1EzXRXhS_slA-441" value="Email" style="rounded=0;whiteSpace=wrap;html=1;" vertex="1" parent="1">
          <mxGeometry x="490" y="350" width="90" height="50" as="geometry" />
        </mxCell>
        <mxCell id="jxo5zmWq1EzXRXhS_slA-442" value="" style="endArrow=none;html=1;rounded=0;entryX=0.104;entryY=1.023;entryDx=0;entryDy=0;entryPerimeter=0;" edge="1" parent="1" target="jxo5zmWq1EzXRXhS_slA-431">
          <mxGeometry width="50" height="50" relative="1" as="geometry">
            <mxPoint x="220" y="830" as="sourcePoint" />
            <mxPoint x="200" y="340" as="targetPoint" />
          </mxGeometry>
        </mxCell>
        <mxCell id="jxo5zmWq1EzXRXhS_slA-443" value="Retrato de uma Dama" style="rounded=0;whiteSpace=wrap;html=1;" vertex="1" parent="1">
          <mxGeometry x="240" y="410" width="140" height="30" as="geometry" />
        </mxCell>
        <mxCell id="jxo5zmWq1EzXRXhS_slA-444" value="SAO GERONIMO NO DESERTO" style="rounded=0;whiteSpace=wrap;html=1;fontSize=10;" vertex="1" parent="1">
          <mxGeometry x="240" y="450" width="140" height="30" as="geometry" />
        </mxCell>
        <mxCell id="jxo5zmWq1EzXRXhS_slA-445" value="TESTEAMENTO E MORTE DE MOISES" style="rounded=0;whiteSpace=wrap;html=1;fontSize=10;" vertex="1" parent="1">
          <mxGeometry x="240" y="490" width="140" height="30" as="geometry" />
        </mxCell>
        <mxCell id="jxo5zmWq1EzXRXhS_slA-446" value="RETRATO DE UM CAVALEIRO" style="rounded=0;whiteSpace=wrap;html=1;fontSize=10;" vertex="1" parent="1">
          <mxGeometry x="240" y="530" width="140" height="30" as="geometry" />
        </mxCell>
        <mxCell id="jxo5zmWq1EzXRXhS_slA-447" value="ULTIMA CEIA" style="rounded=0;whiteSpace=wrap;html=1;fontSize=10;" vertex="1" parent="1">
          <mxGeometry x="240" y="570" width="140" height="30" as="geometry" />
        </mxCell>
        <mxCell id="jxo5zmWq1EzXRXhS_slA-448" value="A CRUCIFICACAO" style="rounded=0;whiteSpace=wrap;html=1;fontSize=10;" vertex="1" parent="1">
          <mxGeometry x="240" y="610" width="140" height="30" as="geometry" />
        </mxCell>
        <mxCell id="jxo5zmWq1EzXRXhS_slA-449" value="ADORACAO DOS MAGOS" style="rounded=0;whiteSpace=wrap;html=1;fontSize=10;" vertex="1" parent="1">
          <mxGeometry x="240" y="650" width="140" height="30" as="geometry" />
        </mxCell>
        <mxCell id="jxo5zmWq1EzXRXhS_slA-450" value="ADORACAO DOS REIS MAGOS" style="rounded=0;whiteSpace=wrap;html=1;fontSize=10;" vertex="1" parent="1">
          <mxGeometry x="240" y="690" width="140" height="30" as="geometry" />
        </mxCell>
        <mxCell id="jxo5zmWq1EzXRXhS_slA-451" value="ANUNCIACAO" style="rounded=0;whiteSpace=wrap;html=1;fontSize=10;" vertex="1" parent="1">
          <mxGeometry x="240" y="730" width="140" height="30" as="geometry" />
        </mxCell>
        <mxCell id="jxo5zmWq1EzXRXhS_slA-452" value="MADONNA AND CHILD" style="rounded=0;whiteSpace=wrap;html=1;fontSize=10;" vertex="1" parent="1">
          <mxGeometry x="240" y="770" width="140" height="30" as="geometry" />
        </mxCell>
        <mxCell id="jxo5zmWq1EzXRXhS_slA-453" value="O MARTIRIO DE SAO SEBASTIAO" style="rounded=0;whiteSpace=wrap;html=1;fontSize=10;" vertex="1" parent="1">
          <mxGeometry x="240" y="810" width="140" height="30" as="geometry" />
        </mxCell>
        <mxCell id="jxo5zmWq1EzXRXhS_slA-454" value="Davi" style="rounded=0;whiteSpace=wrap;html=1;" vertex="1" parent="1">
          <mxGeometry x="240" y="920" width="140" height="30" as="geometry" />
        </mxCell>
        <mxCell id="jxo5zmWq1EzXRXhS_slA-455" value="" style="endArrow=none;html=1;rounded=0;entryX=0.107;entryY=1.011;entryDx=0;entryDy=0;entryPerimeter=0;" edge="1" parent="1" target="jxo5zmWq1EzXRXhS_slA-435">
          <mxGeometry width="50" height="50" relative="1" as="geometry">
            <mxPoint x="220" y="980" as="sourcePoint" />
            <mxPoint x="229" y="411" as="targetPoint" />
          </mxGeometry>
        </mxCell>
        <mxCell id="jxo5zmWq1EzXRXhS_slA-457" value="Pietra" style="rounded=0;whiteSpace=wrap;html=1;" vertex="1" parent="1">
          <mxGeometry x="240" y="960" width="140" height="30" as="geometry" />
        </mxCell>
        <mxCell id="jxo5zmWq1EzXRXhS_slA-459" value="A TEMPESTADE" style="rounded=0;whiteSpace=wrap;html=1;" vertex="1" parent="1">
          <mxGeometry x="240" y="1090" width="140" height="30" as="geometry" />
        </mxCell>
        <mxCell id="jxo5zmWq1EzXRXhS_slA-460" value="DECAMERON" style="rounded=0;whiteSpace=wrap;html=1;" vertex="1" parent="1">
          <mxGeometry x="240" y="1130" width="140" height="30" as="geometry" />
        </mxCell>
        <mxCell id="jxo5zmWq1EzXRXhS_slA-461" value="LA SOL FA RE MI" style="rounded=0;whiteSpace=wrap;html=1;" vertex="1" parent="1">
          <mxGeometry x="240" y="1169" width="140" height="30" as="geometry" />
        </mxCell>
        <mxCell id="jxo5zmWq1EzXRXhS_slA-462" value="O PRINCIPE" style="rounded=0;whiteSpace=wrap;html=1;" vertex="1" parent="1">
          <mxGeometry x="240" y="1210" width="140" height="30" as="geometry" />
        </mxCell>
        <mxCell id="jxo5zmWq1EzXRXhS_slA-463" value="Orlando-Furioso" style="rounded=0;whiteSpace=wrap;html=1;" vertex="1" parent="1">
          <mxGeometry x="240" y="1250" width="140" height="30" as="geometry" />
        </mxCell>
        <mxCell id="jxo5zmWq1EzXRXhS_slA-464" value="" style="endArrow=none;html=1;rounded=0;exitX=0.095;exitY=0.998;exitDx=0;exitDy=0;exitPerimeter=0;" edge="1" parent="1" source="jxo5zmWq1EzXRXhS_slA-436">
          <mxGeometry width="50" height="50" relative="1" as="geometry">
            <mxPoint x="230" y="990" as="sourcePoint" />
            <mxPoint x="220" y="1270" as="targetPoint" />
          </mxGeometry>
        </mxCell>
        <mxCell id="jxo5zmWq1EzXRXhS_slA-465" value="Obra 1" style="rounded=0;whiteSpace=wrap;html=1;" vertex="1" parent="1">
          <mxGeometry x="80" y="430" width="90" height="20" as="geometry" />
        </mxCell>
        <mxCell id="jxo5zmWq1EzXRXhS_slA-466" value="Obra 2" style="rounded=0;whiteSpace=wrap;html=1;" vertex="1" parent="1">
          <mxGeometry x="80" y="460" width="90" height="20" as="geometry" />
        </mxCell>
        <mxCell id="jxo5zmWq1EzXRXhS_slA-467" value="Obra 3" style="rounded=0;whiteSpace=wrap;html=1;" vertex="1" parent="1">
          <mxGeometry x="80" y="490" width="90" height="20" as="geometry" />
        </mxCell>
        <mxCell id="jxo5zmWq1EzXRXhS_slA-468" value="" style="endArrow=classic;html=1;rounded=0;entryX=-0.001;entryY=0.651;entryDx=0;entryDy=0;entryPerimeter=0;" edge="1" parent="1" target="jxo5zmWq1EzXRXhS_slA-453">
          <mxGeometry width="50" height="50" relative="1" as="geometry">
            <mxPoint x="220" y="830" as="sourcePoint" />
            <mxPoint x="170" y="790" as="targetPoint" />
          </mxGeometry>
        </mxCell>
        <mxCell id="jxo5zmWq1EzXRXhS_slA-469" value="" style="endArrow=classic;html=1;rounded=0;entryX=0.001;entryY=0.682;entryDx=0;entryDy=0;entryPerimeter=0;" edge="1" parent="1" target="jxo5zmWq1EzXRXhS_slA-457">
          <mxGeometry width="50" height="50" relative="1" as="geometry">
            <mxPoint x="220" y="980" as="sourcePoint" />
            <mxPoint x="230" y="980" as="targetPoint" />
          </mxGeometry>
        </mxCell>
        <mxCell id="jxo5zmWq1EzXRXhS_slA-470" value="" style="endArrow=classic;html=1;rounded=0;" edge="1" parent="1">
          <mxGeometry width="50" height="50" relative="1" as="geometry">
            <mxPoint x="220" y="1270" as="sourcePoint" />
            <mxPoint x="240" y="1270" as="targetPoint" />
          </mxGeometry>
        </mxCell>
        <mxCell id="jxo5zmWq1EzXRXhS_slA-471" value="" style="endArrow=classic;html=1;rounded=0;entryX=-0.006;entryY=0.593;entryDx=0;entryDy=0;entryPerimeter=0;" edge="1" parent="1" target="jxo5zmWq1EzXRXhS_slA-436">
          <mxGeometry width="50" height="50" relative="1" as="geometry">
            <mxPoint x="190" y="1050" as="sourcePoint" />
            <mxPoint x="260" y="1000" as="targetPoint" />
          </mxGeometry>
        </mxCell>
        <mxCell id="jxo5zmWq1EzXRXhS_slA-472" value="" style="endArrow=classic;html=1;rounded=0;entryX=0;entryY=0.5;entryDx=0;entryDy=0;" edge="1" parent="1" target="jxo5zmWq1EzXRXhS_slA-435">
          <mxGeometry width="50" height="50" relative="1" as="geometry">
            <mxPoint x="190" y="885" as="sourcePoint" />
            <mxPoint x="219" y="1060" as="targetPoint" />
          </mxGeometry>
        </mxCell>
      </root>
    </mxGraphModel>
  </diagram>
</mxfile>
